<mxfile host="app.diagrams.net" agent="Mozilla/5.0 (Macintosh; Intel Mac OS X 10_15_7) AppleWebKit/605.1.15 (KHTML, like Gecko) Version/18.3.1 Safari/605.1.15" version="26.2.12" pages="2">
  <diagram name="data_path" id="Ddoi-UTif0A0S_QmjPPV">
    <mxGraphModel dx="2040" dy="2358" grid="1" gridSize="10" guides="1" tooltips="1" connect="1" arrows="1" fold="1" page="1" pageScale="1" pageWidth="827" pageHeight="1169" math="0" shadow="0">
      <root>
        <mxCell id="0" />
        <mxCell id="1" parent="0" />
        <mxCell id="xGAvHEMGW50SsRfJmS0v-1" value="" style="rounded=0;whiteSpace=wrap;html=1;fillColor=#FFB366;" vertex="1" parent="1">
          <mxGeometry x="200" y="180" width="880" height="180" as="geometry" />
        </mxCell>
        <mxCell id="xGAvHEMGW50SsRfJmS0v-26" value="" style="rounded=0;whiteSpace=wrap;html=1;fillColor=light-dark(#FFB366,#EDEDED);" vertex="1" parent="1">
          <mxGeometry x="280" y="400" width="90" height="410" as="geometry" />
        </mxCell>
        <mxCell id="xGAvHEMGW50SsRfJmS0v-43" value="" style="endArrow=none;html=1;rounded=0;" edge="1" parent="1">
          <mxGeometry width="50" height="50" relative="1" as="geometry">
            <mxPoint x="160" y="280" as="sourcePoint" />
            <mxPoint x="1080" y="280" as="targetPoint" />
          </mxGeometry>
        </mxCell>
        <mxCell id="xGAvHEMGW50SsRfJmS0v-27" style="edgeStyle=orthogonalEdgeStyle;rounded=0;orthogonalLoop=1;jettySize=auto;html=1;exitX=1;exitY=0.5;exitDx=0;exitDy=0;entryX=0;entryY=0.5;entryDx=0;entryDy=0;endArrow=none;startFill=0;" edge="1" parent="1" source="xGAvHEMGW50SsRfJmS0v-2" target="xGAvHEMGW50SsRfJmS0v-14">
          <mxGeometry relative="1" as="geometry" />
        </mxCell>
        <mxCell id="xGAvHEMGW50SsRfJmS0v-2" value="256x&lt;div&gt;128&lt;/div&gt;" style="rounded=0;whiteSpace=wrap;html=1;" vertex="1" parent="1">
          <mxGeometry x="210" y="400" width="60" height="40" as="geometry" />
        </mxCell>
        <mxCell id="xGAvHEMGW50SsRfJmS0v-3" value="WL" style="rounded=0;whiteSpace=wrap;html=1;fillColor=#FF3333;strokeColor=#b85450;" vertex="1" parent="1">
          <mxGeometry x="210" y="440" width="60" height="20" as="geometry" />
        </mxCell>
        <mxCell id="xGAvHEMGW50SsRfJmS0v-28" style="edgeStyle=orthogonalEdgeStyle;rounded=0;orthogonalLoop=1;jettySize=auto;html=1;exitX=1;exitY=0.5;exitDx=0;exitDy=0;entryX=0;entryY=0.5;entryDx=0;entryDy=0;endArrow=none;startFill=0;" edge="1" parent="1" source="xGAvHEMGW50SsRfJmS0v-4" target="xGAvHEMGW50SsRfJmS0v-16">
          <mxGeometry relative="1" as="geometry" />
        </mxCell>
        <mxCell id="xGAvHEMGW50SsRfJmS0v-4" value="256x&lt;div&gt;128&lt;/div&gt;" style="rounded=0;whiteSpace=wrap;html=1;" vertex="1" parent="1">
          <mxGeometry x="210" y="460" width="60" height="40" as="geometry" />
        </mxCell>
        <mxCell id="xGAvHEMGW50SsRfJmS0v-29" style="edgeStyle=orthogonalEdgeStyle;rounded=0;orthogonalLoop=1;jettySize=auto;html=1;exitX=1;exitY=0.5;exitDx=0;exitDy=0;entryX=0;entryY=0.5;entryDx=0;entryDy=0;endArrow=none;startFill=0;" edge="1" parent="1" source="xGAvHEMGW50SsRfJmS0v-5" target="xGAvHEMGW50SsRfJmS0v-17">
          <mxGeometry relative="1" as="geometry" />
        </mxCell>
        <mxCell id="xGAvHEMGW50SsRfJmS0v-5" value="256x&lt;div&gt;128&lt;/div&gt;" style="rounded=0;whiteSpace=wrap;html=1;" vertex="1" parent="1">
          <mxGeometry x="210" y="500" width="60" height="40" as="geometry" />
        </mxCell>
        <mxCell id="xGAvHEMGW50SsRfJmS0v-6" value="WL" style="rounded=0;whiteSpace=wrap;html=1;fillColor=#FF3333;strokeColor=#b85450;" vertex="1" parent="1">
          <mxGeometry x="210" y="540" width="60" height="20" as="geometry" />
        </mxCell>
        <mxCell id="xGAvHEMGW50SsRfJmS0v-30" style="edgeStyle=orthogonalEdgeStyle;rounded=0;orthogonalLoop=1;jettySize=auto;html=1;exitX=1;exitY=0.5;exitDx=0;exitDy=0;entryX=0;entryY=0.5;entryDx=0;entryDy=0;endArrow=none;startFill=0;" edge="1" parent="1" source="xGAvHEMGW50SsRfJmS0v-7" target="xGAvHEMGW50SsRfJmS0v-19">
          <mxGeometry relative="1" as="geometry" />
        </mxCell>
        <mxCell id="xGAvHEMGW50SsRfJmS0v-7" value="256x&lt;div&gt;128&lt;/div&gt;" style="rounded=0;whiteSpace=wrap;html=1;" vertex="1" parent="1">
          <mxGeometry x="210" y="560" width="60" height="40" as="geometry" />
        </mxCell>
        <mxCell id="xGAvHEMGW50SsRfJmS0v-31" style="edgeStyle=orthogonalEdgeStyle;rounded=0;orthogonalLoop=1;jettySize=auto;html=1;exitX=1;exitY=0.5;exitDx=0;exitDy=0;entryX=0;entryY=0.5;entryDx=0;entryDy=0;endArrow=none;startFill=0;" edge="1" parent="1" source="xGAvHEMGW50SsRfJmS0v-8" target="xGAvHEMGW50SsRfJmS0v-20">
          <mxGeometry relative="1" as="geometry" />
        </mxCell>
        <mxCell id="xGAvHEMGW50SsRfJmS0v-8" value="256x&lt;div&gt;128&lt;/div&gt;" style="rounded=0;whiteSpace=wrap;html=1;" vertex="1" parent="1">
          <mxGeometry x="210" y="610" width="60" height="40" as="geometry" />
        </mxCell>
        <mxCell id="xGAvHEMGW50SsRfJmS0v-9" value="WL" style="rounded=0;whiteSpace=wrap;html=1;fillColor=#FF3333;strokeColor=#b85450;" vertex="1" parent="1">
          <mxGeometry x="210" y="650" width="60" height="20" as="geometry" />
        </mxCell>
        <mxCell id="xGAvHEMGW50SsRfJmS0v-32" style="edgeStyle=orthogonalEdgeStyle;rounded=0;orthogonalLoop=1;jettySize=auto;html=1;exitX=1;exitY=0.5;exitDx=0;exitDy=0;entryX=0;entryY=0.5;entryDx=0;entryDy=0;endArrow=none;startFill=0;" edge="1" parent="1" source="xGAvHEMGW50SsRfJmS0v-10" target="xGAvHEMGW50SsRfJmS0v-22">
          <mxGeometry relative="1" as="geometry" />
        </mxCell>
        <mxCell id="xGAvHEMGW50SsRfJmS0v-10" value="256x&lt;div&gt;128&lt;/div&gt;" style="rounded=0;whiteSpace=wrap;html=1;" vertex="1" parent="1">
          <mxGeometry x="210" y="670" width="60" height="40" as="geometry" />
        </mxCell>
        <mxCell id="xGAvHEMGW50SsRfJmS0v-33" style="edgeStyle=orthogonalEdgeStyle;rounded=0;orthogonalLoop=1;jettySize=auto;html=1;exitX=1;exitY=0.5;exitDx=0;exitDy=0;entryX=0;entryY=0.5;entryDx=0;entryDy=0;endArrow=none;startFill=0;" edge="1" parent="1" source="xGAvHEMGW50SsRfJmS0v-11" target="xGAvHEMGW50SsRfJmS0v-23">
          <mxGeometry relative="1" as="geometry" />
        </mxCell>
        <mxCell id="xGAvHEMGW50SsRfJmS0v-11" value="256x&lt;div&gt;128&lt;/div&gt;" style="rounded=0;whiteSpace=wrap;html=1;" vertex="1" parent="1">
          <mxGeometry x="210" y="710" width="60" height="40" as="geometry" />
        </mxCell>
        <mxCell id="xGAvHEMGW50SsRfJmS0v-12" value="WL" style="rounded=0;whiteSpace=wrap;html=1;fillColor=#FF3333;strokeColor=#b85450;" vertex="1" parent="1">
          <mxGeometry x="210" y="750" width="60" height="20" as="geometry" />
        </mxCell>
        <mxCell id="xGAvHEMGW50SsRfJmS0v-34" style="edgeStyle=orthogonalEdgeStyle;rounded=0;orthogonalLoop=1;jettySize=auto;html=1;exitX=1;exitY=0.5;exitDx=0;exitDy=0;entryX=0;entryY=0.5;entryDx=0;entryDy=0;endArrow=none;startFill=0;" edge="1" parent="1" source="xGAvHEMGW50SsRfJmS0v-13" target="xGAvHEMGW50SsRfJmS0v-25">
          <mxGeometry relative="1" as="geometry" />
        </mxCell>
        <mxCell id="xGAvHEMGW50SsRfJmS0v-13" value="256x&lt;div&gt;128&lt;/div&gt;" style="rounded=0;whiteSpace=wrap;html=1;" vertex="1" parent="1">
          <mxGeometry x="210" y="770" width="60" height="40" as="geometry" />
        </mxCell>
        <mxCell id="xGAvHEMGW50SsRfJmS0v-14" value="256x&lt;div&gt;128&lt;/div&gt;" style="rounded=0;whiteSpace=wrap;html=1;" vertex="1" parent="1">
          <mxGeometry x="380" y="400" width="60" height="40" as="geometry" />
        </mxCell>
        <mxCell id="xGAvHEMGW50SsRfJmS0v-15" value="WL" style="rounded=0;whiteSpace=wrap;html=1;fillColor=#FF3333;strokeColor=#b85450;" vertex="1" parent="1">
          <mxGeometry x="380" y="440" width="60" height="20" as="geometry" />
        </mxCell>
        <mxCell id="xGAvHEMGW50SsRfJmS0v-16" value="256x&lt;div&gt;128&lt;/div&gt;" style="rounded=0;whiteSpace=wrap;html=1;" vertex="1" parent="1">
          <mxGeometry x="380" y="460" width="60" height="40" as="geometry" />
        </mxCell>
        <mxCell id="xGAvHEMGW50SsRfJmS0v-17" value="256x&lt;div&gt;128&lt;/div&gt;" style="rounded=0;whiteSpace=wrap;html=1;" vertex="1" parent="1">
          <mxGeometry x="380" y="500" width="60" height="40" as="geometry" />
        </mxCell>
        <mxCell id="xGAvHEMGW50SsRfJmS0v-18" value="WL" style="rounded=0;whiteSpace=wrap;html=1;fillColor=#FF3333;strokeColor=#b85450;" vertex="1" parent="1">
          <mxGeometry x="380" y="540" width="60" height="20" as="geometry" />
        </mxCell>
        <mxCell id="xGAvHEMGW50SsRfJmS0v-19" value="256x&lt;div&gt;128&lt;/div&gt;" style="rounded=0;whiteSpace=wrap;html=1;" vertex="1" parent="1">
          <mxGeometry x="380" y="560" width="60" height="40" as="geometry" />
        </mxCell>
        <mxCell id="xGAvHEMGW50SsRfJmS0v-20" value="256x&lt;div&gt;128&lt;/div&gt;" style="rounded=0;whiteSpace=wrap;html=1;" vertex="1" parent="1">
          <mxGeometry x="380" y="610" width="60" height="40" as="geometry" />
        </mxCell>
        <mxCell id="xGAvHEMGW50SsRfJmS0v-21" value="WL" style="rounded=0;whiteSpace=wrap;html=1;fillColor=#FF3333;strokeColor=#b85450;" vertex="1" parent="1">
          <mxGeometry x="380" y="650" width="60" height="20" as="geometry" />
        </mxCell>
        <mxCell id="xGAvHEMGW50SsRfJmS0v-22" value="256x&lt;div&gt;128&lt;/div&gt;" style="rounded=0;whiteSpace=wrap;html=1;" vertex="1" parent="1">
          <mxGeometry x="380" y="670" width="60" height="40" as="geometry" />
        </mxCell>
        <mxCell id="xGAvHEMGW50SsRfJmS0v-23" value="256x&lt;div&gt;128&lt;/div&gt;" style="rounded=0;whiteSpace=wrap;html=1;" vertex="1" parent="1">
          <mxGeometry x="380" y="710" width="60" height="40" as="geometry" />
        </mxCell>
        <mxCell id="xGAvHEMGW50SsRfJmS0v-24" value="WL" style="rounded=0;whiteSpace=wrap;html=1;fillColor=#FF3333;strokeColor=#b85450;" vertex="1" parent="1">
          <mxGeometry x="380" y="750" width="60" height="20" as="geometry" />
        </mxCell>
        <mxCell id="xGAvHEMGW50SsRfJmS0v-25" value="256x&lt;div&gt;128&lt;/div&gt;" style="rounded=0;whiteSpace=wrap;html=1;" vertex="1" parent="1">
          <mxGeometry x="380" y="770" width="60" height="40" as="geometry" />
        </mxCell>
        <mxCell id="xGAvHEMGW50SsRfJmS0v-36" value="" style="endArrow=none;html=1;rounded=0;" edge="1" parent="1">
          <mxGeometry width="50" height="50" relative="1" as="geometry">
            <mxPoint x="160" y="350" as="sourcePoint" />
            <mxPoint x="1080" y="350" as="targetPoint" />
          </mxGeometry>
        </mxCell>
        <mxCell id="xGAvHEMGW50SsRfJmS0v-37" value="" style="endArrow=none;html=1;rounded=0;" edge="1" parent="1">
          <mxGeometry width="50" height="50" relative="1" as="geometry">
            <mxPoint x="160" y="340" as="sourcePoint" />
            <mxPoint x="1080" y="340" as="targetPoint" />
          </mxGeometry>
        </mxCell>
        <mxCell id="xGAvHEMGW50SsRfJmS0v-38" value="" style="endArrow=none;html=1;rounded=0;" edge="1" parent="1">
          <mxGeometry width="50" height="50" relative="1" as="geometry">
            <mxPoint x="160" y="330" as="sourcePoint" />
            <mxPoint x="1080" y="330" as="targetPoint" />
          </mxGeometry>
        </mxCell>
        <mxCell id="xGAvHEMGW50SsRfJmS0v-39" value="" style="endArrow=none;html=1;rounded=0;" edge="1" parent="1">
          <mxGeometry width="50" height="50" relative="1" as="geometry">
            <mxPoint x="160" y="320" as="sourcePoint" />
            <mxPoint x="1080" y="320" as="targetPoint" />
          </mxGeometry>
        </mxCell>
        <mxCell id="xGAvHEMGW50SsRfJmS0v-40" value="" style="endArrow=none;html=1;rounded=0;" edge="1" parent="1">
          <mxGeometry width="50" height="50" relative="1" as="geometry">
            <mxPoint x="160" y="310" as="sourcePoint" />
            <mxPoint x="1080" y="310" as="targetPoint" />
          </mxGeometry>
        </mxCell>
        <mxCell id="xGAvHEMGW50SsRfJmS0v-41" value="" style="endArrow=none;html=1;rounded=0;" edge="1" parent="1">
          <mxGeometry width="50" height="50" relative="1" as="geometry">
            <mxPoint x="160" y="300" as="sourcePoint" />
            <mxPoint x="1080" y="300" as="targetPoint" />
          </mxGeometry>
        </mxCell>
        <mxCell id="xGAvHEMGW50SsRfJmS0v-42" value="" style="endArrow=none;html=1;rounded=0;" edge="1" parent="1">
          <mxGeometry width="50" height="50" relative="1" as="geometry">
            <mxPoint x="160" y="290" as="sourcePoint" />
            <mxPoint x="1080" y="290" as="targetPoint" />
          </mxGeometry>
        </mxCell>
        <mxCell id="xGAvHEMGW50SsRfJmS0v-45" value="" style="endArrow=oval;html=1;rounded=0;strokeColor=default;align=center;verticalAlign=middle;fontFamily=Helvetica;fontSize=11;fontColor=default;labelBackgroundColor=default;startArrow=oval;startFill=1;endFill=1;flowAnimation=0;startFillColor=#FFFFFF;" edge="1" parent="1">
          <mxGeometry width="50" height="50" relative="1" as="geometry">
            <mxPoint x="300" y="480" as="sourcePoint" />
            <mxPoint x="300" y="290" as="targetPoint" />
          </mxGeometry>
        </mxCell>
        <mxCell id="xGAvHEMGW50SsRfJmS0v-46" value="" style="endArrow=oval;html=1;rounded=0;strokeColor=default;align=center;verticalAlign=middle;fontFamily=Helvetica;fontSize=11;fontColor=default;labelBackgroundColor=default;startArrow=oval;startFill=1;endFill=1;flowAnimation=0;startFillColor=#E8E8E8;" edge="1" parent="1">
          <mxGeometry width="50" height="50" relative="1" as="geometry">
            <mxPoint x="310" y="520" as="sourcePoint" />
            <mxPoint x="310" y="300" as="targetPoint" />
          </mxGeometry>
        </mxCell>
        <mxCell id="xGAvHEMGW50SsRfJmS0v-47" value="" style="endArrow=oval;html=1;rounded=0;strokeColor=default;align=center;verticalAlign=middle;fontFamily=Helvetica;fontSize=11;fontColor=default;labelBackgroundColor=default;startArrow=oval;startFill=1;endFill=1;flowAnimation=0;startFillColor=#FFFFFF;" edge="1" parent="1">
          <mxGeometry width="50" height="50" relative="1" as="geometry">
            <mxPoint x="320" y="580" as="sourcePoint" />
            <mxPoint x="320" y="310" as="targetPoint" />
          </mxGeometry>
        </mxCell>
        <mxCell id="xGAvHEMGW50SsRfJmS0v-48" value="" style="endArrow=oval;html=1;rounded=0;strokeColor=default;align=center;verticalAlign=middle;fontFamily=Helvetica;fontSize=11;fontColor=default;labelBackgroundColor=default;startArrow=oval;startFill=1;endFill=1;flowAnimation=0;startFillColor=#FFFFFF;" edge="1" parent="1">
          <mxGeometry width="50" height="50" relative="1" as="geometry">
            <mxPoint x="330" y="630" as="sourcePoint" />
            <mxPoint x="330" y="320" as="targetPoint" />
          </mxGeometry>
        </mxCell>
        <mxCell id="xGAvHEMGW50SsRfJmS0v-49" value="" style="endArrow=oval;html=1;rounded=0;strokeColor=default;align=center;verticalAlign=middle;fontFamily=Helvetica;fontSize=11;fontColor=default;labelBackgroundColor=default;startArrow=oval;startFill=1;endFill=1;flowAnimation=0;startFillColor=#FFFFFF;" edge="1" parent="1">
          <mxGeometry width="50" height="50" relative="1" as="geometry">
            <mxPoint x="340" y="690" as="sourcePoint" />
            <mxPoint x="340" y="330" as="targetPoint" />
          </mxGeometry>
        </mxCell>
        <mxCell id="xGAvHEMGW50SsRfJmS0v-50" value="" style="endArrow=oval;html=1;rounded=0;strokeColor=default;align=center;verticalAlign=middle;fontFamily=Helvetica;fontSize=11;fontColor=default;labelBackgroundColor=default;startArrow=oval;startFill=1;endFill=1;flowAnimation=0;startFillColor=#FFFFFF;" edge="1" parent="1">
          <mxGeometry width="50" height="50" relative="1" as="geometry">
            <mxPoint x="350" y="730" as="sourcePoint" />
            <mxPoint x="350" y="340" as="targetPoint" />
          </mxGeometry>
        </mxCell>
        <mxCell id="xGAvHEMGW50SsRfJmS0v-51" value="" style="endArrow=oval;html=1;rounded=0;strokeColor=default;align=center;verticalAlign=middle;fontFamily=Helvetica;fontSize=11;fontColor=default;labelBackgroundColor=default;startArrow=oval;startFill=1;endFill=1;flowAnimation=0;startFillColor=#FFFFFF;" edge="1" parent="1">
          <mxGeometry width="50" height="50" relative="1" as="geometry">
            <mxPoint x="360" y="790" as="sourcePoint" />
            <mxPoint x="360" y="350" as="targetPoint" />
          </mxGeometry>
        </mxCell>
        <mxCell id="xGAvHEMGW50SsRfJmS0v-44" value="" style="endArrow=oval;html=1;rounded=0;startArrow=oval;startFill=1;endFill=1;flowAnimation=0;startFillColor=#FFFFFF;" edge="1" parent="1">
          <mxGeometry width="50" height="50" relative="1" as="geometry">
            <mxPoint x="290" y="420" as="sourcePoint" />
            <mxPoint x="290" y="280" as="targetPoint" />
          </mxGeometry>
        </mxCell>
        <mxCell id="xGAvHEMGW50SsRfJmS0v-56" value="" style="endArrow=none;html=1;rounded=0;" edge="1" parent="1">
          <mxGeometry width="50" height="50" relative="1" as="geometry">
            <mxPoint x="160" y="190" as="sourcePoint" />
            <mxPoint x="1080" y="190" as="targetPoint" />
          </mxGeometry>
        </mxCell>
        <mxCell id="xGAvHEMGW50SsRfJmS0v-57" value="" style="endArrow=none;html=1;rounded=0;" edge="1" parent="1">
          <mxGeometry width="50" height="50" relative="1" as="geometry">
            <mxPoint x="160" y="260" as="sourcePoint" />
            <mxPoint x="1080" y="260" as="targetPoint" />
          </mxGeometry>
        </mxCell>
        <mxCell id="xGAvHEMGW50SsRfJmS0v-58" value="" style="endArrow=none;html=1;rounded=0;" edge="1" parent="1">
          <mxGeometry width="50" height="50" relative="1" as="geometry">
            <mxPoint x="160" y="250" as="sourcePoint" />
            <mxPoint x="1080" y="250" as="targetPoint" />
          </mxGeometry>
        </mxCell>
        <mxCell id="xGAvHEMGW50SsRfJmS0v-59" value="" style="endArrow=none;html=1;rounded=0;" edge="1" parent="1">
          <mxGeometry width="50" height="50" relative="1" as="geometry">
            <mxPoint x="160" y="240" as="sourcePoint" />
            <mxPoint x="1080" y="240" as="targetPoint" />
          </mxGeometry>
        </mxCell>
        <mxCell id="xGAvHEMGW50SsRfJmS0v-60" value="" style="endArrow=none;html=1;rounded=0;" edge="1" parent="1">
          <mxGeometry width="50" height="50" relative="1" as="geometry">
            <mxPoint x="160" y="230" as="sourcePoint" />
            <mxPoint x="1080" y="230" as="targetPoint" />
          </mxGeometry>
        </mxCell>
        <mxCell id="xGAvHEMGW50SsRfJmS0v-61" value="" style="endArrow=none;html=1;rounded=0;" edge="1" parent="1">
          <mxGeometry width="50" height="50" relative="1" as="geometry">
            <mxPoint x="160" y="220" as="sourcePoint" />
            <mxPoint x="1080" y="220" as="targetPoint" />
          </mxGeometry>
        </mxCell>
        <mxCell id="xGAvHEMGW50SsRfJmS0v-62" value="" style="endArrow=none;html=1;rounded=0;" edge="1" parent="1">
          <mxGeometry width="50" height="50" relative="1" as="geometry">
            <mxPoint x="160" y="210" as="sourcePoint" />
            <mxPoint x="1080" y="210" as="targetPoint" />
          </mxGeometry>
        </mxCell>
        <mxCell id="xGAvHEMGW50SsRfJmS0v-63" value="" style="endArrow=none;html=1;rounded=0;" edge="1" parent="1">
          <mxGeometry width="50" height="50" relative="1" as="geometry">
            <mxPoint x="160" y="200" as="sourcePoint" />
            <mxPoint x="1080" y="200" as="targetPoint" />
          </mxGeometry>
        </mxCell>
        <mxCell id="xGAvHEMGW50SsRfJmS0v-64" value="" style="rounded=0;whiteSpace=wrap;html=1;fillColor=light-dark(#FFB366,#EDEDED);" vertex="1" parent="1">
          <mxGeometry x="680" y="400" width="90" height="410" as="geometry" />
        </mxCell>
        <mxCell id="xGAvHEMGW50SsRfJmS0v-65" style="edgeStyle=orthogonalEdgeStyle;rounded=0;orthogonalLoop=1;jettySize=auto;html=1;exitX=1;exitY=0.5;exitDx=0;exitDy=0;entryX=0;entryY=0.5;entryDx=0;entryDy=0;endArrow=none;startFill=0;" edge="1" parent="1" source="xGAvHEMGW50SsRfJmS0v-66" target="xGAvHEMGW50SsRfJmS0v-85">
          <mxGeometry relative="1" as="geometry" />
        </mxCell>
        <mxCell id="xGAvHEMGW50SsRfJmS0v-66" value="256x&lt;div&gt;128&lt;/div&gt;" style="rounded=0;whiteSpace=wrap;html=1;" vertex="1" parent="1">
          <mxGeometry x="610" y="400" width="60" height="40" as="geometry" />
        </mxCell>
        <mxCell id="xGAvHEMGW50SsRfJmS0v-67" value="WL" style="rounded=0;whiteSpace=wrap;html=1;fillColor=#FF3333;strokeColor=#b85450;" vertex="1" parent="1">
          <mxGeometry x="610" y="440" width="60" height="20" as="geometry" />
        </mxCell>
        <mxCell id="xGAvHEMGW50SsRfJmS0v-68" style="edgeStyle=orthogonalEdgeStyle;rounded=0;orthogonalLoop=1;jettySize=auto;html=1;exitX=1;exitY=0.5;exitDx=0;exitDy=0;entryX=0;entryY=0.5;entryDx=0;entryDy=0;endArrow=none;startFill=0;" edge="1" parent="1" source="xGAvHEMGW50SsRfJmS0v-69" target="xGAvHEMGW50SsRfJmS0v-87">
          <mxGeometry relative="1" as="geometry" />
        </mxCell>
        <mxCell id="xGAvHEMGW50SsRfJmS0v-69" value="256x&lt;div&gt;128&lt;/div&gt;" style="rounded=0;whiteSpace=wrap;html=1;" vertex="1" parent="1">
          <mxGeometry x="610" y="460" width="60" height="40" as="geometry" />
        </mxCell>
        <mxCell id="xGAvHEMGW50SsRfJmS0v-70" style="edgeStyle=orthogonalEdgeStyle;rounded=0;orthogonalLoop=1;jettySize=auto;html=1;exitX=1;exitY=0.5;exitDx=0;exitDy=0;entryX=0;entryY=0.5;entryDx=0;entryDy=0;endArrow=none;startFill=0;" edge="1" parent="1" source="xGAvHEMGW50SsRfJmS0v-71" target="xGAvHEMGW50SsRfJmS0v-88">
          <mxGeometry relative="1" as="geometry" />
        </mxCell>
        <mxCell id="xGAvHEMGW50SsRfJmS0v-71" value="256x&lt;div&gt;128&lt;/div&gt;" style="rounded=0;whiteSpace=wrap;html=1;" vertex="1" parent="1">
          <mxGeometry x="610" y="500" width="60" height="40" as="geometry" />
        </mxCell>
        <mxCell id="xGAvHEMGW50SsRfJmS0v-72" value="WL" style="rounded=0;whiteSpace=wrap;html=1;fillColor=#FF3333;strokeColor=#b85450;" vertex="1" parent="1">
          <mxGeometry x="610" y="540" width="60" height="20" as="geometry" />
        </mxCell>
        <mxCell id="xGAvHEMGW50SsRfJmS0v-73" style="edgeStyle=orthogonalEdgeStyle;rounded=0;orthogonalLoop=1;jettySize=auto;html=1;exitX=1;exitY=0.5;exitDx=0;exitDy=0;entryX=0;entryY=0.5;entryDx=0;entryDy=0;endArrow=none;startFill=0;" edge="1" parent="1" source="xGAvHEMGW50SsRfJmS0v-74" target="xGAvHEMGW50SsRfJmS0v-90">
          <mxGeometry relative="1" as="geometry" />
        </mxCell>
        <mxCell id="xGAvHEMGW50SsRfJmS0v-74" value="256x&lt;div&gt;128&lt;/div&gt;" style="rounded=0;whiteSpace=wrap;html=1;" vertex="1" parent="1">
          <mxGeometry x="610" y="560" width="60" height="40" as="geometry" />
        </mxCell>
        <mxCell id="xGAvHEMGW50SsRfJmS0v-75" style="edgeStyle=orthogonalEdgeStyle;rounded=0;orthogonalLoop=1;jettySize=auto;html=1;exitX=1;exitY=0.5;exitDx=0;exitDy=0;entryX=0;entryY=0.5;entryDx=0;entryDy=0;endArrow=none;startFill=0;" edge="1" parent="1" source="xGAvHEMGW50SsRfJmS0v-76" target="xGAvHEMGW50SsRfJmS0v-91">
          <mxGeometry relative="1" as="geometry" />
        </mxCell>
        <mxCell id="xGAvHEMGW50SsRfJmS0v-76" value="256x&lt;div&gt;128&lt;/div&gt;" style="rounded=0;whiteSpace=wrap;html=1;" vertex="1" parent="1">
          <mxGeometry x="610" y="610" width="60" height="40" as="geometry" />
        </mxCell>
        <mxCell id="xGAvHEMGW50SsRfJmS0v-77" value="WL" style="rounded=0;whiteSpace=wrap;html=1;fillColor=#FF3333;strokeColor=#b85450;" vertex="1" parent="1">
          <mxGeometry x="610" y="650" width="60" height="20" as="geometry" />
        </mxCell>
        <mxCell id="xGAvHEMGW50SsRfJmS0v-78" style="edgeStyle=orthogonalEdgeStyle;rounded=0;orthogonalLoop=1;jettySize=auto;html=1;exitX=1;exitY=0.5;exitDx=0;exitDy=0;entryX=0;entryY=0.5;entryDx=0;entryDy=0;endArrow=none;startFill=0;" edge="1" parent="1" source="xGAvHEMGW50SsRfJmS0v-79" target="xGAvHEMGW50SsRfJmS0v-93">
          <mxGeometry relative="1" as="geometry" />
        </mxCell>
        <mxCell id="xGAvHEMGW50SsRfJmS0v-79" value="256x&lt;div&gt;128&lt;/div&gt;" style="rounded=0;whiteSpace=wrap;html=1;" vertex="1" parent="1">
          <mxGeometry x="610" y="670" width="60" height="40" as="geometry" />
        </mxCell>
        <mxCell id="xGAvHEMGW50SsRfJmS0v-80" style="edgeStyle=orthogonalEdgeStyle;rounded=0;orthogonalLoop=1;jettySize=auto;html=1;exitX=1;exitY=0.5;exitDx=0;exitDy=0;entryX=0;entryY=0.5;entryDx=0;entryDy=0;endArrow=none;startFill=0;" edge="1" parent="1" source="xGAvHEMGW50SsRfJmS0v-81" target="xGAvHEMGW50SsRfJmS0v-94">
          <mxGeometry relative="1" as="geometry" />
        </mxCell>
        <mxCell id="xGAvHEMGW50SsRfJmS0v-81" value="256x&lt;div&gt;128&lt;/div&gt;" style="rounded=0;whiteSpace=wrap;html=1;" vertex="1" parent="1">
          <mxGeometry x="610" y="710" width="60" height="40" as="geometry" />
        </mxCell>
        <mxCell id="xGAvHEMGW50SsRfJmS0v-82" value="WL" style="rounded=0;whiteSpace=wrap;html=1;fillColor=#FF3333;strokeColor=#b85450;" vertex="1" parent="1">
          <mxGeometry x="610" y="750" width="60" height="20" as="geometry" />
        </mxCell>
        <mxCell id="xGAvHEMGW50SsRfJmS0v-83" style="edgeStyle=orthogonalEdgeStyle;rounded=0;orthogonalLoop=1;jettySize=auto;html=1;exitX=1;exitY=0.5;exitDx=0;exitDy=0;entryX=0;entryY=0.5;entryDx=0;entryDy=0;endArrow=none;startFill=0;" edge="1" parent="1" source="xGAvHEMGW50SsRfJmS0v-84" target="xGAvHEMGW50SsRfJmS0v-96">
          <mxGeometry relative="1" as="geometry" />
        </mxCell>
        <mxCell id="xGAvHEMGW50SsRfJmS0v-84" value="256x&lt;div&gt;128&lt;/div&gt;" style="rounded=0;whiteSpace=wrap;html=1;" vertex="1" parent="1">
          <mxGeometry x="610" y="770" width="60" height="40" as="geometry" />
        </mxCell>
        <mxCell id="xGAvHEMGW50SsRfJmS0v-85" value="256x&lt;div&gt;128&lt;/div&gt;" style="rounded=0;whiteSpace=wrap;html=1;" vertex="1" parent="1">
          <mxGeometry x="780" y="400" width="60" height="40" as="geometry" />
        </mxCell>
        <mxCell id="xGAvHEMGW50SsRfJmS0v-86" value="WL" style="rounded=0;whiteSpace=wrap;html=1;fillColor=#FF3333;strokeColor=#b85450;" vertex="1" parent="1">
          <mxGeometry x="780" y="440" width="60" height="20" as="geometry" />
        </mxCell>
        <mxCell id="xGAvHEMGW50SsRfJmS0v-87" value="256x&lt;div&gt;128&lt;/div&gt;" style="rounded=0;whiteSpace=wrap;html=1;" vertex="1" parent="1">
          <mxGeometry x="780" y="460" width="60" height="40" as="geometry" />
        </mxCell>
        <mxCell id="xGAvHEMGW50SsRfJmS0v-88" value="256x&lt;div&gt;128&lt;/div&gt;" style="rounded=0;whiteSpace=wrap;html=1;" vertex="1" parent="1">
          <mxGeometry x="780" y="500" width="60" height="40" as="geometry" />
        </mxCell>
        <mxCell id="xGAvHEMGW50SsRfJmS0v-89" value="WL" style="rounded=0;whiteSpace=wrap;html=1;fillColor=#FF3333;strokeColor=#b85450;" vertex="1" parent="1">
          <mxGeometry x="780" y="540" width="60" height="20" as="geometry" />
        </mxCell>
        <mxCell id="xGAvHEMGW50SsRfJmS0v-90" value="256x&lt;div&gt;128&lt;/div&gt;" style="rounded=0;whiteSpace=wrap;html=1;" vertex="1" parent="1">
          <mxGeometry x="780" y="560" width="60" height="40" as="geometry" />
        </mxCell>
        <mxCell id="xGAvHEMGW50SsRfJmS0v-91" value="256x&lt;div&gt;128&lt;/div&gt;" style="rounded=0;whiteSpace=wrap;html=1;" vertex="1" parent="1">
          <mxGeometry x="780" y="610" width="60" height="40" as="geometry" />
        </mxCell>
        <mxCell id="xGAvHEMGW50SsRfJmS0v-92" value="WL" style="rounded=0;whiteSpace=wrap;html=1;fillColor=#FF3333;strokeColor=#b85450;" vertex="1" parent="1">
          <mxGeometry x="780" y="650" width="60" height="20" as="geometry" />
        </mxCell>
        <mxCell id="xGAvHEMGW50SsRfJmS0v-93" value="256x&lt;div&gt;128&lt;/div&gt;" style="rounded=0;whiteSpace=wrap;html=1;" vertex="1" parent="1">
          <mxGeometry x="780" y="670" width="60" height="40" as="geometry" />
        </mxCell>
        <mxCell id="xGAvHEMGW50SsRfJmS0v-94" value="256x&lt;div&gt;128&lt;/div&gt;" style="rounded=0;whiteSpace=wrap;html=1;" vertex="1" parent="1">
          <mxGeometry x="780" y="710" width="60" height="40" as="geometry" />
        </mxCell>
        <mxCell id="xGAvHEMGW50SsRfJmS0v-95" value="WL" style="rounded=0;whiteSpace=wrap;html=1;fillColor=#FF3333;strokeColor=#b85450;" vertex="1" parent="1">
          <mxGeometry x="780" y="750" width="60" height="20" as="geometry" />
        </mxCell>
        <mxCell id="xGAvHEMGW50SsRfJmS0v-96" value="256x&lt;div&gt;128&lt;/div&gt;" style="rounded=0;whiteSpace=wrap;html=1;" vertex="1" parent="1">
          <mxGeometry x="780" y="770" width="60" height="40" as="geometry" />
        </mxCell>
        <mxCell id="xGAvHEMGW50SsRfJmS0v-97" value="" style="endArrow=oval;html=1;rounded=0;strokeColor=default;align=center;verticalAlign=middle;fontFamily=Helvetica;fontSize=11;fontColor=default;labelBackgroundColor=default;startArrow=oval;startFill=1;endFill=1;flowAnimation=0;startFillColor=#FFFFFF;" edge="1" parent="1">
          <mxGeometry width="50" height="50" relative="1" as="geometry">
            <mxPoint x="700" y="480" as="sourcePoint" />
            <mxPoint x="700" y="290" as="targetPoint" />
          </mxGeometry>
        </mxCell>
        <mxCell id="xGAvHEMGW50SsRfJmS0v-98" value="" style="endArrow=oval;html=1;rounded=0;strokeColor=default;align=center;verticalAlign=middle;fontFamily=Helvetica;fontSize=11;fontColor=default;labelBackgroundColor=default;startArrow=oval;startFill=1;endFill=1;flowAnimation=0;startFillColor=#E8E8E8;" edge="1" parent="1">
          <mxGeometry width="50" height="50" relative="1" as="geometry">
            <mxPoint x="710" y="520" as="sourcePoint" />
            <mxPoint x="710" y="300" as="targetPoint" />
          </mxGeometry>
        </mxCell>
        <mxCell id="xGAvHEMGW50SsRfJmS0v-99" value="" style="endArrow=oval;html=1;rounded=0;strokeColor=default;align=center;verticalAlign=middle;fontFamily=Helvetica;fontSize=11;fontColor=default;labelBackgroundColor=default;startArrow=oval;startFill=1;endFill=1;flowAnimation=0;startFillColor=#FFFFFF;" edge="1" parent="1">
          <mxGeometry width="50" height="50" relative="1" as="geometry">
            <mxPoint x="720" y="580" as="sourcePoint" />
            <mxPoint x="720" y="310" as="targetPoint" />
          </mxGeometry>
        </mxCell>
        <mxCell id="xGAvHEMGW50SsRfJmS0v-100" value="" style="endArrow=oval;html=1;rounded=0;strokeColor=default;align=center;verticalAlign=middle;fontFamily=Helvetica;fontSize=11;fontColor=default;labelBackgroundColor=default;startArrow=oval;startFill=1;endFill=1;flowAnimation=0;startFillColor=#FFFFFF;" edge="1" parent="1">
          <mxGeometry width="50" height="50" relative="1" as="geometry">
            <mxPoint x="730" y="630" as="sourcePoint" />
            <mxPoint x="730" y="320" as="targetPoint" />
          </mxGeometry>
        </mxCell>
        <mxCell id="xGAvHEMGW50SsRfJmS0v-101" value="" style="endArrow=oval;html=1;rounded=0;strokeColor=default;align=center;verticalAlign=middle;fontFamily=Helvetica;fontSize=11;fontColor=default;labelBackgroundColor=default;startArrow=oval;startFill=1;endFill=1;flowAnimation=0;startFillColor=#FFFFFF;" edge="1" parent="1">
          <mxGeometry width="50" height="50" relative="1" as="geometry">
            <mxPoint x="740" y="690" as="sourcePoint" />
            <mxPoint x="740" y="330" as="targetPoint" />
          </mxGeometry>
        </mxCell>
        <mxCell id="xGAvHEMGW50SsRfJmS0v-102" value="" style="endArrow=oval;html=1;rounded=0;strokeColor=default;align=center;verticalAlign=middle;fontFamily=Helvetica;fontSize=11;fontColor=default;labelBackgroundColor=default;startArrow=oval;startFill=1;endFill=1;flowAnimation=0;startFillColor=#FFFFFF;" edge="1" parent="1">
          <mxGeometry width="50" height="50" relative="1" as="geometry">
            <mxPoint x="750" y="730" as="sourcePoint" />
            <mxPoint x="750" y="340" as="targetPoint" />
          </mxGeometry>
        </mxCell>
        <mxCell id="xGAvHEMGW50SsRfJmS0v-103" value="" style="endArrow=oval;html=1;rounded=0;strokeColor=default;align=center;verticalAlign=middle;fontFamily=Helvetica;fontSize=11;fontColor=default;labelBackgroundColor=default;startArrow=oval;startFill=1;endFill=1;flowAnimation=0;startFillColor=#FFFFFF;" edge="1" parent="1">
          <mxGeometry width="50" height="50" relative="1" as="geometry">
            <mxPoint x="760" y="790" as="sourcePoint" />
            <mxPoint x="760" y="350" as="targetPoint" />
          </mxGeometry>
        </mxCell>
        <mxCell id="xGAvHEMGW50SsRfJmS0v-104" value="" style="endArrow=oval;html=1;rounded=0;startArrow=oval;startFill=1;endFill=1;flowAnimation=0;startFillColor=#FFFFFF;" edge="1" parent="1">
          <mxGeometry width="50" height="50" relative="1" as="geometry">
            <mxPoint x="690" y="420" as="sourcePoint" />
            <mxPoint x="690" y="280" as="targetPoint" />
          </mxGeometry>
        </mxCell>
        <mxCell id="xGAvHEMGW50SsRfJmS0v-108" value="" style="rounded=0;whiteSpace=wrap;html=1;fillColor=light-dark(#FFB366,#EDEDED);" vertex="1" parent="1">
          <mxGeometry x="280" y="-270" width="90" height="410" as="geometry" />
        </mxCell>
        <mxCell id="xGAvHEMGW50SsRfJmS0v-109" style="edgeStyle=orthogonalEdgeStyle;rounded=0;orthogonalLoop=1;jettySize=auto;html=1;exitX=1;exitY=0.5;exitDx=0;exitDy=0;entryX=0;entryY=0.5;entryDx=0;entryDy=0;endArrow=none;startFill=0;" edge="1" parent="1" source="xGAvHEMGW50SsRfJmS0v-110" target="xGAvHEMGW50SsRfJmS0v-129">
          <mxGeometry relative="1" as="geometry" />
        </mxCell>
        <mxCell id="xGAvHEMGW50SsRfJmS0v-110" value="256x&lt;div&gt;128&lt;/div&gt;" style="rounded=0;whiteSpace=wrap;html=1;" vertex="1" parent="1">
          <mxGeometry x="210" y="-270" width="60" height="40" as="geometry" />
        </mxCell>
        <mxCell id="xGAvHEMGW50SsRfJmS0v-111" value="WL" style="rounded=0;whiteSpace=wrap;html=1;fillColor=#FF3333;strokeColor=#b85450;" vertex="1" parent="1">
          <mxGeometry x="210" y="-230" width="60" height="20" as="geometry" />
        </mxCell>
        <mxCell id="xGAvHEMGW50SsRfJmS0v-112" style="edgeStyle=orthogonalEdgeStyle;rounded=0;orthogonalLoop=1;jettySize=auto;html=1;exitX=1;exitY=0.5;exitDx=0;exitDy=0;entryX=0;entryY=0.5;entryDx=0;entryDy=0;endArrow=none;startFill=0;" edge="1" parent="1" source="xGAvHEMGW50SsRfJmS0v-113" target="xGAvHEMGW50SsRfJmS0v-131">
          <mxGeometry relative="1" as="geometry" />
        </mxCell>
        <mxCell id="xGAvHEMGW50SsRfJmS0v-113" value="256x&lt;div&gt;128&lt;/div&gt;" style="rounded=0;whiteSpace=wrap;html=1;" vertex="1" parent="1">
          <mxGeometry x="210" y="-210" width="60" height="40" as="geometry" />
        </mxCell>
        <mxCell id="xGAvHEMGW50SsRfJmS0v-114" style="edgeStyle=orthogonalEdgeStyle;rounded=0;orthogonalLoop=1;jettySize=auto;html=1;exitX=1;exitY=0.5;exitDx=0;exitDy=0;entryX=0;entryY=0.5;entryDx=0;entryDy=0;endArrow=none;startFill=0;" edge="1" parent="1" source="xGAvHEMGW50SsRfJmS0v-115" target="xGAvHEMGW50SsRfJmS0v-132">
          <mxGeometry relative="1" as="geometry" />
        </mxCell>
        <mxCell id="xGAvHEMGW50SsRfJmS0v-115" value="256x&lt;div&gt;128&lt;/div&gt;" style="rounded=0;whiteSpace=wrap;html=1;" vertex="1" parent="1">
          <mxGeometry x="210" y="-170" width="60" height="40" as="geometry" />
        </mxCell>
        <mxCell id="xGAvHEMGW50SsRfJmS0v-116" value="WL" style="rounded=0;whiteSpace=wrap;html=1;fillColor=#FF3333;strokeColor=#b85450;" vertex="1" parent="1">
          <mxGeometry x="210" y="-130" width="60" height="20" as="geometry" />
        </mxCell>
        <mxCell id="xGAvHEMGW50SsRfJmS0v-117" style="edgeStyle=orthogonalEdgeStyle;rounded=0;orthogonalLoop=1;jettySize=auto;html=1;exitX=1;exitY=0.5;exitDx=0;exitDy=0;entryX=0;entryY=0.5;entryDx=0;entryDy=0;endArrow=none;startFill=0;" edge="1" parent="1" source="xGAvHEMGW50SsRfJmS0v-118" target="xGAvHEMGW50SsRfJmS0v-134">
          <mxGeometry relative="1" as="geometry" />
        </mxCell>
        <mxCell id="xGAvHEMGW50SsRfJmS0v-118" value="256x&lt;div&gt;128&lt;/div&gt;" style="rounded=0;whiteSpace=wrap;html=1;" vertex="1" parent="1">
          <mxGeometry x="210" y="-110" width="60" height="40" as="geometry" />
        </mxCell>
        <mxCell id="xGAvHEMGW50SsRfJmS0v-119" style="edgeStyle=orthogonalEdgeStyle;rounded=0;orthogonalLoop=1;jettySize=auto;html=1;exitX=1;exitY=0.5;exitDx=0;exitDy=0;entryX=0;entryY=0.5;entryDx=0;entryDy=0;endArrow=none;startFill=0;" edge="1" parent="1" source="xGAvHEMGW50SsRfJmS0v-120" target="xGAvHEMGW50SsRfJmS0v-135">
          <mxGeometry relative="1" as="geometry" />
        </mxCell>
        <mxCell id="xGAvHEMGW50SsRfJmS0v-120" value="256x&lt;div&gt;128&lt;/div&gt;" style="rounded=0;whiteSpace=wrap;html=1;" vertex="1" parent="1">
          <mxGeometry x="210" y="-60" width="60" height="40" as="geometry" />
        </mxCell>
        <mxCell id="xGAvHEMGW50SsRfJmS0v-121" value="WL" style="rounded=0;whiteSpace=wrap;html=1;fillColor=#FF3333;strokeColor=#b85450;" vertex="1" parent="1">
          <mxGeometry x="210" y="-20" width="60" height="20" as="geometry" />
        </mxCell>
        <mxCell id="xGAvHEMGW50SsRfJmS0v-122" style="edgeStyle=orthogonalEdgeStyle;rounded=0;orthogonalLoop=1;jettySize=auto;html=1;exitX=1;exitY=0.5;exitDx=0;exitDy=0;entryX=0;entryY=0.5;entryDx=0;entryDy=0;endArrow=none;startFill=0;" edge="1" parent="1" source="xGAvHEMGW50SsRfJmS0v-123" target="xGAvHEMGW50SsRfJmS0v-137">
          <mxGeometry relative="1" as="geometry" />
        </mxCell>
        <mxCell id="xGAvHEMGW50SsRfJmS0v-123" value="256x&lt;div&gt;128&lt;/div&gt;" style="rounded=0;whiteSpace=wrap;html=1;" vertex="1" parent="1">
          <mxGeometry x="210" width="60" height="40" as="geometry" />
        </mxCell>
        <mxCell id="xGAvHEMGW50SsRfJmS0v-124" style="edgeStyle=orthogonalEdgeStyle;rounded=0;orthogonalLoop=1;jettySize=auto;html=1;exitX=1;exitY=0.5;exitDx=0;exitDy=0;entryX=0;entryY=0.5;entryDx=0;entryDy=0;endArrow=none;startFill=0;" edge="1" parent="1" source="xGAvHEMGW50SsRfJmS0v-125" target="xGAvHEMGW50SsRfJmS0v-138">
          <mxGeometry relative="1" as="geometry" />
        </mxCell>
        <mxCell id="xGAvHEMGW50SsRfJmS0v-125" value="256x&lt;div&gt;128&lt;/div&gt;" style="rounded=0;whiteSpace=wrap;html=1;" vertex="1" parent="1">
          <mxGeometry x="210" y="40" width="60" height="40" as="geometry" />
        </mxCell>
        <mxCell id="xGAvHEMGW50SsRfJmS0v-126" value="WL" style="rounded=0;whiteSpace=wrap;html=1;fillColor=#FF3333;strokeColor=#b85450;" vertex="1" parent="1">
          <mxGeometry x="210" y="80" width="60" height="20" as="geometry" />
        </mxCell>
        <mxCell id="xGAvHEMGW50SsRfJmS0v-127" style="edgeStyle=orthogonalEdgeStyle;rounded=0;orthogonalLoop=1;jettySize=auto;html=1;exitX=1;exitY=0.5;exitDx=0;exitDy=0;entryX=0;entryY=0.5;entryDx=0;entryDy=0;endArrow=none;startFill=0;" edge="1" parent="1" source="xGAvHEMGW50SsRfJmS0v-128" target="xGAvHEMGW50SsRfJmS0v-140">
          <mxGeometry relative="1" as="geometry" />
        </mxCell>
        <mxCell id="xGAvHEMGW50SsRfJmS0v-128" value="256x&lt;div&gt;128&lt;/div&gt;" style="rounded=0;whiteSpace=wrap;html=1;" vertex="1" parent="1">
          <mxGeometry x="210" y="100" width="60" height="40" as="geometry" />
        </mxCell>
        <mxCell id="xGAvHEMGW50SsRfJmS0v-129" value="256x&lt;div&gt;128&lt;/div&gt;" style="rounded=0;whiteSpace=wrap;html=1;" vertex="1" parent="1">
          <mxGeometry x="380" y="-270" width="60" height="40" as="geometry" />
        </mxCell>
        <mxCell id="xGAvHEMGW50SsRfJmS0v-130" value="WL" style="rounded=0;whiteSpace=wrap;html=1;fillColor=#FF3333;strokeColor=#b85450;" vertex="1" parent="1">
          <mxGeometry x="380" y="-230" width="60" height="20" as="geometry" />
        </mxCell>
        <mxCell id="xGAvHEMGW50SsRfJmS0v-131" value="256x&lt;div&gt;128&lt;/div&gt;" style="rounded=0;whiteSpace=wrap;html=1;" vertex="1" parent="1">
          <mxGeometry x="380" y="-210" width="60" height="40" as="geometry" />
        </mxCell>
        <mxCell id="xGAvHEMGW50SsRfJmS0v-132" value="256x&lt;div&gt;128&lt;/div&gt;" style="rounded=0;whiteSpace=wrap;html=1;" vertex="1" parent="1">
          <mxGeometry x="380" y="-170" width="60" height="40" as="geometry" />
        </mxCell>
        <mxCell id="xGAvHEMGW50SsRfJmS0v-133" value="WL" style="rounded=0;whiteSpace=wrap;html=1;fillColor=#FF3333;strokeColor=#b85450;" vertex="1" parent="1">
          <mxGeometry x="380" y="-130" width="60" height="20" as="geometry" />
        </mxCell>
        <mxCell id="xGAvHEMGW50SsRfJmS0v-134" value="256x&lt;div&gt;128&lt;/div&gt;" style="rounded=0;whiteSpace=wrap;html=1;" vertex="1" parent="1">
          <mxGeometry x="380" y="-110" width="60" height="40" as="geometry" />
        </mxCell>
        <mxCell id="xGAvHEMGW50SsRfJmS0v-135" value="256x&lt;div&gt;128&lt;/div&gt;" style="rounded=0;whiteSpace=wrap;html=1;" vertex="1" parent="1">
          <mxGeometry x="380" y="-60" width="60" height="40" as="geometry" />
        </mxCell>
        <mxCell id="xGAvHEMGW50SsRfJmS0v-136" value="WL" style="rounded=0;whiteSpace=wrap;html=1;fillColor=#FF3333;strokeColor=#b85450;" vertex="1" parent="1">
          <mxGeometry x="380" y="-20" width="60" height="20" as="geometry" />
        </mxCell>
        <mxCell id="xGAvHEMGW50SsRfJmS0v-137" value="256x&lt;div&gt;128&lt;/div&gt;" style="rounded=0;whiteSpace=wrap;html=1;" vertex="1" parent="1">
          <mxGeometry x="380" width="60" height="40" as="geometry" />
        </mxCell>
        <mxCell id="xGAvHEMGW50SsRfJmS0v-138" value="256x&lt;div&gt;128&lt;/div&gt;" style="rounded=0;whiteSpace=wrap;html=1;" vertex="1" parent="1">
          <mxGeometry x="380" y="40" width="60" height="40" as="geometry" />
        </mxCell>
        <mxCell id="xGAvHEMGW50SsRfJmS0v-139" value="WL" style="rounded=0;whiteSpace=wrap;html=1;fillColor=#FF3333;strokeColor=#b85450;" vertex="1" parent="1">
          <mxGeometry x="380" y="80" width="60" height="20" as="geometry" />
        </mxCell>
        <mxCell id="xGAvHEMGW50SsRfJmS0v-140" value="256x&lt;div&gt;128&lt;/div&gt;" style="rounded=0;whiteSpace=wrap;html=1;" vertex="1" parent="1">
          <mxGeometry x="380" y="100" width="60" height="40" as="geometry" />
        </mxCell>
        <mxCell id="xGAvHEMGW50SsRfJmS0v-141" value="" style="endArrow=oval;html=1;rounded=0;strokeColor=default;align=center;verticalAlign=middle;fontFamily=Helvetica;fontSize=11;fontColor=default;labelBackgroundColor=default;startArrow=oval;startFill=1;endFill=1;flowAnimation=0;endFillColor=#FFFFFF;" edge="1" parent="1">
          <mxGeometry width="50" height="50" relative="1" as="geometry">
            <mxPoint x="290" y="260" as="sourcePoint" />
            <mxPoint x="290" y="120" as="targetPoint" />
          </mxGeometry>
        </mxCell>
        <mxCell id="xGAvHEMGW50SsRfJmS0v-142" value="" style="endArrow=oval;html=1;rounded=0;strokeColor=default;align=center;verticalAlign=middle;fontFamily=Helvetica;fontSize=11;fontColor=default;labelBackgroundColor=default;startArrow=oval;startFill=1;endFill=1;flowAnimation=0;endFillColor=#FFFFFF;" edge="1" parent="1">
          <mxGeometry width="50" height="50" relative="1" as="geometry">
            <mxPoint x="300" y="250" as="sourcePoint" />
            <mxPoint x="300" y="60" as="targetPoint" />
          </mxGeometry>
        </mxCell>
        <mxCell id="xGAvHEMGW50SsRfJmS0v-143" value="" style="endArrow=oval;html=1;rounded=0;strokeColor=default;align=center;verticalAlign=middle;fontFamily=Helvetica;fontSize=11;fontColor=default;labelBackgroundColor=default;startArrow=oval;startFill=1;endFill=1;flowAnimation=0;endFillColor=#FFFFFF;" edge="1" parent="1">
          <mxGeometry width="50" height="50" relative="1" as="geometry">
            <mxPoint x="310" y="240" as="sourcePoint" />
            <mxPoint x="310" y="20" as="targetPoint" />
          </mxGeometry>
        </mxCell>
        <mxCell id="xGAvHEMGW50SsRfJmS0v-144" value="" style="endArrow=oval;html=1;rounded=0;strokeColor=default;align=center;verticalAlign=middle;fontFamily=Helvetica;fontSize=11;fontColor=default;labelBackgroundColor=default;startArrow=oval;startFill=1;endFill=1;flowAnimation=0;endFillColor=#FFFFFF;" edge="1" parent="1">
          <mxGeometry width="50" height="50" relative="1" as="geometry">
            <mxPoint x="320" y="230" as="sourcePoint" />
            <mxPoint x="320" y="-40" as="targetPoint" />
          </mxGeometry>
        </mxCell>
        <mxCell id="xGAvHEMGW50SsRfJmS0v-145" value="" style="endArrow=oval;html=1;rounded=0;strokeColor=default;align=center;verticalAlign=middle;fontFamily=Helvetica;fontSize=11;fontColor=default;labelBackgroundColor=default;startArrow=oval;startFill=1;endFill=1;flowAnimation=0;endFillColor=#FFFFFF;" edge="1" parent="1">
          <mxGeometry width="50" height="50" relative="1" as="geometry">
            <mxPoint x="330" y="220" as="sourcePoint" />
            <mxPoint x="330" y="-90" as="targetPoint" />
          </mxGeometry>
        </mxCell>
        <mxCell id="xGAvHEMGW50SsRfJmS0v-146" value="" style="endArrow=oval;html=1;rounded=0;strokeColor=default;align=center;verticalAlign=middle;fontFamily=Helvetica;fontSize=11;fontColor=default;labelBackgroundColor=default;startArrow=oval;startFill=1;endFill=1;flowAnimation=0;endFillColor=#FFFFFF;" edge="1" parent="1">
          <mxGeometry width="50" height="50" relative="1" as="geometry">
            <mxPoint x="340" y="210" as="sourcePoint" />
            <mxPoint x="340" y="-150" as="targetPoint" />
          </mxGeometry>
        </mxCell>
        <mxCell id="xGAvHEMGW50SsRfJmS0v-147" value="" style="endArrow=oval;html=1;rounded=0;strokeColor=default;align=center;verticalAlign=middle;fontFamily=Helvetica;fontSize=11;fontColor=default;labelBackgroundColor=default;startArrow=oval;startFill=1;endFill=1;flowAnimation=0;endFillColor=#FFFFFF;" edge="1" parent="1">
          <mxGeometry width="50" height="50" relative="1" as="geometry">
            <mxPoint x="350" y="200" as="sourcePoint" />
            <mxPoint x="350" y="-190" as="targetPoint" />
          </mxGeometry>
        </mxCell>
        <mxCell id="xGAvHEMGW50SsRfJmS0v-148" value="" style="endArrow=oval;html=1;rounded=0;strokeColor=default;align=center;verticalAlign=middle;fontFamily=Helvetica;fontSize=11;fontColor=default;labelBackgroundColor=default;startArrow=oval;startFill=1;endFill=1;flowAnimation=0;endFillColor=#FFFFFF;" edge="1" parent="1">
          <mxGeometry width="50" height="50" relative="1" as="geometry">
            <mxPoint x="360" y="190" as="sourcePoint" />
            <mxPoint x="360" y="-250" as="targetPoint" />
          </mxGeometry>
        </mxCell>
        <mxCell id="xGAvHEMGW50SsRfJmS0v-149" value="" style="rounded=0;whiteSpace=wrap;html=1;fillColor=light-dark(#FFB366,#EDEDED);" vertex="1" parent="1">
          <mxGeometry x="680" y="-270" width="90" height="410" as="geometry" />
        </mxCell>
        <mxCell id="xGAvHEMGW50SsRfJmS0v-150" style="edgeStyle=orthogonalEdgeStyle;rounded=0;orthogonalLoop=1;jettySize=auto;html=1;exitX=1;exitY=0.5;exitDx=0;exitDy=0;entryX=0;entryY=0.5;entryDx=0;entryDy=0;endArrow=none;startFill=0;" edge="1" parent="1" source="xGAvHEMGW50SsRfJmS0v-151" target="xGAvHEMGW50SsRfJmS0v-170">
          <mxGeometry relative="1" as="geometry" />
        </mxCell>
        <mxCell id="xGAvHEMGW50SsRfJmS0v-151" value="256x&lt;div&gt;128&lt;/div&gt;" style="rounded=0;whiteSpace=wrap;html=1;" vertex="1" parent="1">
          <mxGeometry x="610" y="-270" width="60" height="40" as="geometry" />
        </mxCell>
        <mxCell id="xGAvHEMGW50SsRfJmS0v-152" value="WL" style="rounded=0;whiteSpace=wrap;html=1;fillColor=#FF3333;strokeColor=#b85450;" vertex="1" parent="1">
          <mxGeometry x="610" y="-230" width="60" height="20" as="geometry" />
        </mxCell>
        <mxCell id="xGAvHEMGW50SsRfJmS0v-153" style="edgeStyle=orthogonalEdgeStyle;rounded=0;orthogonalLoop=1;jettySize=auto;html=1;exitX=1;exitY=0.5;exitDx=0;exitDy=0;entryX=0;entryY=0.5;entryDx=0;entryDy=0;endArrow=none;startFill=0;" edge="1" parent="1" source="xGAvHEMGW50SsRfJmS0v-154" target="xGAvHEMGW50SsRfJmS0v-172">
          <mxGeometry relative="1" as="geometry" />
        </mxCell>
        <mxCell id="xGAvHEMGW50SsRfJmS0v-154" value="256x&lt;div&gt;128&lt;/div&gt;" style="rounded=0;whiteSpace=wrap;html=1;" vertex="1" parent="1">
          <mxGeometry x="610" y="-210" width="60" height="40" as="geometry" />
        </mxCell>
        <mxCell id="xGAvHEMGW50SsRfJmS0v-155" style="edgeStyle=orthogonalEdgeStyle;rounded=0;orthogonalLoop=1;jettySize=auto;html=1;exitX=1;exitY=0.5;exitDx=0;exitDy=0;entryX=0;entryY=0.5;entryDx=0;entryDy=0;endArrow=none;startFill=0;" edge="1" parent="1" source="xGAvHEMGW50SsRfJmS0v-156" target="xGAvHEMGW50SsRfJmS0v-173">
          <mxGeometry relative="1" as="geometry" />
        </mxCell>
        <mxCell id="xGAvHEMGW50SsRfJmS0v-156" value="256x&lt;div&gt;128&lt;/div&gt;" style="rounded=0;whiteSpace=wrap;html=1;" vertex="1" parent="1">
          <mxGeometry x="610" y="-170" width="60" height="40" as="geometry" />
        </mxCell>
        <mxCell id="xGAvHEMGW50SsRfJmS0v-157" value="WL" style="rounded=0;whiteSpace=wrap;html=1;fillColor=#FF3333;strokeColor=#b85450;" vertex="1" parent="1">
          <mxGeometry x="610" y="-130" width="60" height="20" as="geometry" />
        </mxCell>
        <mxCell id="xGAvHEMGW50SsRfJmS0v-158" style="edgeStyle=orthogonalEdgeStyle;rounded=0;orthogonalLoop=1;jettySize=auto;html=1;exitX=1;exitY=0.5;exitDx=0;exitDy=0;entryX=0;entryY=0.5;entryDx=0;entryDy=0;endArrow=none;startFill=0;" edge="1" parent="1" source="xGAvHEMGW50SsRfJmS0v-159" target="xGAvHEMGW50SsRfJmS0v-175">
          <mxGeometry relative="1" as="geometry" />
        </mxCell>
        <mxCell id="xGAvHEMGW50SsRfJmS0v-159" value="256x&lt;div&gt;128&lt;/div&gt;" style="rounded=0;whiteSpace=wrap;html=1;" vertex="1" parent="1">
          <mxGeometry x="610" y="-110" width="60" height="40" as="geometry" />
        </mxCell>
        <mxCell id="xGAvHEMGW50SsRfJmS0v-160" style="edgeStyle=orthogonalEdgeStyle;rounded=0;orthogonalLoop=1;jettySize=auto;html=1;exitX=1;exitY=0.5;exitDx=0;exitDy=0;entryX=0;entryY=0.5;entryDx=0;entryDy=0;endArrow=none;startFill=0;" edge="1" parent="1" source="xGAvHEMGW50SsRfJmS0v-161" target="xGAvHEMGW50SsRfJmS0v-176">
          <mxGeometry relative="1" as="geometry" />
        </mxCell>
        <mxCell id="xGAvHEMGW50SsRfJmS0v-161" value="256x&lt;div&gt;128&lt;/div&gt;" style="rounded=0;whiteSpace=wrap;html=1;" vertex="1" parent="1">
          <mxGeometry x="610" y="-60" width="60" height="40" as="geometry" />
        </mxCell>
        <mxCell id="xGAvHEMGW50SsRfJmS0v-162" value="WL" style="rounded=0;whiteSpace=wrap;html=1;fillColor=#FF3333;strokeColor=#b85450;" vertex="1" parent="1">
          <mxGeometry x="610" y="-20" width="60" height="20" as="geometry" />
        </mxCell>
        <mxCell id="xGAvHEMGW50SsRfJmS0v-163" style="edgeStyle=orthogonalEdgeStyle;rounded=0;orthogonalLoop=1;jettySize=auto;html=1;exitX=1;exitY=0.5;exitDx=0;exitDy=0;entryX=0;entryY=0.5;entryDx=0;entryDy=0;endArrow=none;startFill=0;" edge="1" parent="1" source="xGAvHEMGW50SsRfJmS0v-164" target="xGAvHEMGW50SsRfJmS0v-178">
          <mxGeometry relative="1" as="geometry" />
        </mxCell>
        <mxCell id="xGAvHEMGW50SsRfJmS0v-164" value="256x&lt;div&gt;128&lt;/div&gt;" style="rounded=0;whiteSpace=wrap;html=1;" vertex="1" parent="1">
          <mxGeometry x="610" width="60" height="40" as="geometry" />
        </mxCell>
        <mxCell id="xGAvHEMGW50SsRfJmS0v-165" style="edgeStyle=orthogonalEdgeStyle;rounded=0;orthogonalLoop=1;jettySize=auto;html=1;exitX=1;exitY=0.5;exitDx=0;exitDy=0;entryX=0;entryY=0.5;entryDx=0;entryDy=0;endArrow=none;startFill=0;" edge="1" parent="1" source="xGAvHEMGW50SsRfJmS0v-166" target="xGAvHEMGW50SsRfJmS0v-179">
          <mxGeometry relative="1" as="geometry" />
        </mxCell>
        <mxCell id="xGAvHEMGW50SsRfJmS0v-166" value="256x&lt;div&gt;128&lt;/div&gt;" style="rounded=0;whiteSpace=wrap;html=1;" vertex="1" parent="1">
          <mxGeometry x="610" y="40" width="60" height="40" as="geometry" />
        </mxCell>
        <mxCell id="xGAvHEMGW50SsRfJmS0v-167" value="WL" style="rounded=0;whiteSpace=wrap;html=1;fillColor=#FF3333;strokeColor=#b85450;" vertex="1" parent="1">
          <mxGeometry x="610" y="80" width="60" height="20" as="geometry" />
        </mxCell>
        <mxCell id="xGAvHEMGW50SsRfJmS0v-168" style="edgeStyle=orthogonalEdgeStyle;rounded=0;orthogonalLoop=1;jettySize=auto;html=1;exitX=1;exitY=0.5;exitDx=0;exitDy=0;entryX=0;entryY=0.5;entryDx=0;entryDy=0;endArrow=none;startFill=0;" edge="1" parent="1" source="xGAvHEMGW50SsRfJmS0v-169" target="xGAvHEMGW50SsRfJmS0v-181">
          <mxGeometry relative="1" as="geometry" />
        </mxCell>
        <mxCell id="xGAvHEMGW50SsRfJmS0v-169" value="256x&lt;div&gt;128&lt;/div&gt;" style="rounded=0;whiteSpace=wrap;html=1;" vertex="1" parent="1">
          <mxGeometry x="610" y="100" width="60" height="40" as="geometry" />
        </mxCell>
        <mxCell id="xGAvHEMGW50SsRfJmS0v-170" value="256x&lt;div&gt;128&lt;/div&gt;" style="rounded=0;whiteSpace=wrap;html=1;" vertex="1" parent="1">
          <mxGeometry x="780" y="-270" width="60" height="40" as="geometry" />
        </mxCell>
        <mxCell id="xGAvHEMGW50SsRfJmS0v-171" value="WL" style="rounded=0;whiteSpace=wrap;html=1;fillColor=#FF3333;strokeColor=#b85450;" vertex="1" parent="1">
          <mxGeometry x="780" y="-230" width="60" height="20" as="geometry" />
        </mxCell>
        <mxCell id="xGAvHEMGW50SsRfJmS0v-172" value="256x&lt;div&gt;128&lt;/div&gt;" style="rounded=0;whiteSpace=wrap;html=1;" vertex="1" parent="1">
          <mxGeometry x="780" y="-210" width="60" height="40" as="geometry" />
        </mxCell>
        <mxCell id="xGAvHEMGW50SsRfJmS0v-173" value="256x&lt;div&gt;128&lt;/div&gt;" style="rounded=0;whiteSpace=wrap;html=1;" vertex="1" parent="1">
          <mxGeometry x="780" y="-170" width="60" height="40" as="geometry" />
        </mxCell>
        <mxCell id="xGAvHEMGW50SsRfJmS0v-174" value="WL" style="rounded=0;whiteSpace=wrap;html=1;fillColor=#FF3333;strokeColor=#b85450;" vertex="1" parent="1">
          <mxGeometry x="780" y="-130" width="60" height="20" as="geometry" />
        </mxCell>
        <mxCell id="xGAvHEMGW50SsRfJmS0v-175" value="256x&lt;div&gt;128&lt;/div&gt;" style="rounded=0;whiteSpace=wrap;html=1;" vertex="1" parent="1">
          <mxGeometry x="780" y="-110" width="60" height="40" as="geometry" />
        </mxCell>
        <mxCell id="xGAvHEMGW50SsRfJmS0v-176" value="256x&lt;div&gt;128&lt;/div&gt;" style="rounded=0;whiteSpace=wrap;html=1;" vertex="1" parent="1">
          <mxGeometry x="780" y="-60" width="60" height="40" as="geometry" />
        </mxCell>
        <mxCell id="xGAvHEMGW50SsRfJmS0v-177" value="WL" style="rounded=0;whiteSpace=wrap;html=1;fillColor=#FF3333;strokeColor=#b85450;" vertex="1" parent="1">
          <mxGeometry x="780" y="-20" width="60" height="20" as="geometry" />
        </mxCell>
        <mxCell id="xGAvHEMGW50SsRfJmS0v-178" value="256x&lt;div&gt;128&lt;/div&gt;" style="rounded=0;whiteSpace=wrap;html=1;" vertex="1" parent="1">
          <mxGeometry x="780" width="60" height="40" as="geometry" />
        </mxCell>
        <mxCell id="xGAvHEMGW50SsRfJmS0v-179" value="256x&lt;div&gt;128&lt;/div&gt;" style="rounded=0;whiteSpace=wrap;html=1;" vertex="1" parent="1">
          <mxGeometry x="780" y="40" width="60" height="40" as="geometry" />
        </mxCell>
        <mxCell id="xGAvHEMGW50SsRfJmS0v-180" value="WL" style="rounded=0;whiteSpace=wrap;html=1;fillColor=#FF3333;strokeColor=#b85450;" vertex="1" parent="1">
          <mxGeometry x="780" y="80" width="60" height="20" as="geometry" />
        </mxCell>
        <mxCell id="xGAvHEMGW50SsRfJmS0v-181" value="256x&lt;div&gt;128&lt;/div&gt;" style="rounded=0;whiteSpace=wrap;html=1;" vertex="1" parent="1">
          <mxGeometry x="780" y="100" width="60" height="40" as="geometry" />
        </mxCell>
        <mxCell id="xGAvHEMGW50SsRfJmS0v-182" value="" style="endArrow=oval;html=1;rounded=0;strokeColor=default;align=center;verticalAlign=middle;fontFamily=Helvetica;fontSize=11;fontColor=default;labelBackgroundColor=default;startArrow=oval;startFill=1;endFill=1;flowAnimation=0;endFillColor=#FFFFFF;" edge="1" parent="1">
          <mxGeometry width="50" height="50" relative="1" as="geometry">
            <mxPoint x="690" y="260" as="sourcePoint" />
            <mxPoint x="690" y="120" as="targetPoint" />
          </mxGeometry>
        </mxCell>
        <mxCell id="xGAvHEMGW50SsRfJmS0v-183" value="" style="endArrow=oval;html=1;rounded=0;strokeColor=default;align=center;verticalAlign=middle;fontFamily=Helvetica;fontSize=11;fontColor=default;labelBackgroundColor=default;startArrow=oval;startFill=1;endFill=1;flowAnimation=0;endFillColor=#FFFFFF;" edge="1" parent="1">
          <mxGeometry width="50" height="50" relative="1" as="geometry">
            <mxPoint x="700" y="250" as="sourcePoint" />
            <mxPoint x="700" y="60" as="targetPoint" />
          </mxGeometry>
        </mxCell>
        <mxCell id="xGAvHEMGW50SsRfJmS0v-184" value="" style="endArrow=oval;html=1;rounded=0;strokeColor=default;align=center;verticalAlign=middle;fontFamily=Helvetica;fontSize=11;fontColor=default;labelBackgroundColor=default;startArrow=oval;startFill=1;endFill=1;flowAnimation=0;endFillColor=#FFFFFF;" edge="1" parent="1">
          <mxGeometry width="50" height="50" relative="1" as="geometry">
            <mxPoint x="710" y="240" as="sourcePoint" />
            <mxPoint x="710" y="20" as="targetPoint" />
          </mxGeometry>
        </mxCell>
        <mxCell id="xGAvHEMGW50SsRfJmS0v-185" value="" style="endArrow=oval;html=1;rounded=0;strokeColor=default;align=center;verticalAlign=middle;fontFamily=Helvetica;fontSize=11;fontColor=default;labelBackgroundColor=default;startArrow=oval;startFill=1;endFill=1;flowAnimation=0;endFillColor=#FFFFFF;" edge="1" parent="1">
          <mxGeometry width="50" height="50" relative="1" as="geometry">
            <mxPoint x="720" y="230" as="sourcePoint" />
            <mxPoint x="720" y="-40" as="targetPoint" />
          </mxGeometry>
        </mxCell>
        <mxCell id="xGAvHEMGW50SsRfJmS0v-186" value="" style="endArrow=oval;html=1;rounded=0;strokeColor=default;align=center;verticalAlign=middle;fontFamily=Helvetica;fontSize=11;fontColor=default;labelBackgroundColor=default;startArrow=oval;startFill=1;endFill=1;flowAnimation=0;endFillColor=#FFFFFF;" edge="1" parent="1">
          <mxGeometry width="50" height="50" relative="1" as="geometry">
            <mxPoint x="730" y="220" as="sourcePoint" />
            <mxPoint x="730" y="-90" as="targetPoint" />
          </mxGeometry>
        </mxCell>
        <mxCell id="xGAvHEMGW50SsRfJmS0v-187" value="" style="endArrow=oval;html=1;rounded=0;strokeColor=default;align=center;verticalAlign=middle;fontFamily=Helvetica;fontSize=11;fontColor=default;labelBackgroundColor=default;startArrow=oval;startFill=1;endFill=1;flowAnimation=0;endFillColor=#FFFFFF;" edge="1" parent="1">
          <mxGeometry width="50" height="50" relative="1" as="geometry">
            <mxPoint x="740" y="210" as="sourcePoint" />
            <mxPoint x="740" y="-150" as="targetPoint" />
          </mxGeometry>
        </mxCell>
        <mxCell id="xGAvHEMGW50SsRfJmS0v-188" value="" style="endArrow=oval;html=1;rounded=0;strokeColor=default;align=center;verticalAlign=middle;fontFamily=Helvetica;fontSize=11;fontColor=default;labelBackgroundColor=default;startArrow=oval;startFill=1;endFill=1;flowAnimation=0;endFillColor=#FFFFFF;" edge="1" parent="1">
          <mxGeometry width="50" height="50" relative="1" as="geometry">
            <mxPoint x="750" y="200" as="sourcePoint" />
            <mxPoint x="750" y="-190" as="targetPoint" />
          </mxGeometry>
        </mxCell>
        <mxCell id="xGAvHEMGW50SsRfJmS0v-189" value="" style="endArrow=oval;html=1;rounded=0;strokeColor=default;align=center;verticalAlign=middle;fontFamily=Helvetica;fontSize=11;fontColor=default;labelBackgroundColor=default;startArrow=oval;startFill=1;endFill=1;flowAnimation=0;endFillColor=#FFFFFF;" edge="1" parent="1">
          <mxGeometry width="50" height="50" relative="1" as="geometry">
            <mxPoint x="760" y="190" as="sourcePoint" />
            <mxPoint x="760" y="-250" as="targetPoint" />
          </mxGeometry>
        </mxCell>
        <mxCell id="xGAvHEMGW50SsRfJmS0v-195" value="" style="shape=curlyBracket;whiteSpace=wrap;html=1;rounded=1;labelPosition=left;verticalLabelPosition=middle;align=right;verticalAlign=middle;" vertex="1" parent="1">
          <mxGeometry x="120" y="190" width="30" height="160" as="geometry" />
        </mxCell>
        <mxCell id="xGAvHEMGW50SsRfJmS0v-196" value="256b" style="text;html=1;align=center;verticalAlign=middle;whiteSpace=wrap;rounded=0;" vertex="1" parent="1">
          <mxGeometry x="70" y="255" width="60" height="30" as="geometry" />
        </mxCell>
        <mxCell id="xGAvHEMGW50SsRfJmS0v-197" value="" style="endArrow=none;html=1;rounded=0;" edge="1" parent="1">
          <mxGeometry width="50" height="50" relative="1" as="geometry">
            <mxPoint x="285" y="380" as="sourcePoint" />
            <mxPoint x="295" y="380" as="targetPoint" />
          </mxGeometry>
        </mxCell>
        <mxCell id="xGAvHEMGW50SsRfJmS0v-198" value="16" style="text;html=1;align=center;verticalAlign=middle;whiteSpace=wrap;rounded=0;" vertex="1" parent="1">
          <mxGeometry x="244" y="365" width="60" height="30" as="geometry" />
        </mxCell>
      </root>
    </mxGraphModel>
  </diagram>
  <diagram id="1InA7AONfgdSViICqKlA" name="address_path">
    <mxGraphModel dx="1015" dy="741" grid="1" gridSize="10" guides="1" tooltips="1" connect="1" arrows="1" fold="1" page="1" pageScale="1" pageWidth="827" pageHeight="1169" math="0" shadow="0">
      <root>
        <mxCell id="0" />
        <mxCell id="1" parent="0" />
      </root>
    </mxGraphModel>
  </diagram>
</mxfile>
